<mxfile host="app.diagrams.net" modified="2023-11-28T11:24:55.675Z" agent="Mozilla/5.0 (Windows NT 10.0; Win64; x64) AppleWebKit/537.36 (KHTML, like Gecko) Chrome/119.0.0.0 Safari/537.36" etag="mv7w0n0XQiJqM1CbtAHK" version="22.1.4" type="device">
  <diagram name="Page-1" id="6b6gEgVhWHbF82X86rnK">
    <mxGraphModel dx="1012" dy="609" grid="1" gridSize="10" guides="1" tooltips="1" connect="1" arrows="1" fold="1" page="1" pageScale="1" pageWidth="850" pageHeight="1100" math="0" shadow="0">
      <root>
        <mxCell id="0" />
        <mxCell id="1" parent="0" />
        <mxCell id="Q1t_D53qkPP75rgHkSk3-1" style="edgeStyle=none;rounded=0;orthogonalLoop=1;jettySize=auto;html=1;exitX=1;exitY=1;exitDx=0;exitDy=0;fontSize=18;fillColor=#d5e8d4;strokeColor=default;" edge="1" parent="1">
          <mxGeometry relative="1" as="geometry">
            <mxPoint x="220" y="316.75" as="sourcePoint" />
            <mxPoint x="220" y="316.75" as="targetPoint" />
          </mxGeometry>
        </mxCell>
        <mxCell id="Q1t_D53qkPP75rgHkSk3-12" style="edgeStyle=orthogonalEdgeStyle;rounded=0;orthogonalLoop=1;jettySize=auto;html=1;exitX=1;exitY=0.5;exitDx=0;exitDy=0;entryX=0;entryY=0.5;entryDx=0;entryDy=0;" edge="1" parent="1" source="Q1t_D53qkPP75rgHkSk3-2" target="Q1t_D53qkPP75rgHkSk3-4">
          <mxGeometry relative="1" as="geometry" />
        </mxCell>
        <mxCell id="Q1t_D53qkPP75rgHkSk3-13" style="edgeStyle=orthogonalEdgeStyle;rounded=0;orthogonalLoop=1;jettySize=auto;html=1;exitX=1;exitY=0.5;exitDx=0;exitDy=0;entryX=0;entryY=0.5;entryDx=0;entryDy=0;" edge="1" parent="1" source="Q1t_D53qkPP75rgHkSk3-2" target="Q1t_D53qkPP75rgHkSk3-6">
          <mxGeometry relative="1" as="geometry" />
        </mxCell>
        <mxCell id="Q1t_D53qkPP75rgHkSk3-2" value="&lt;b style=&quot;font-size: 12px;&quot;&gt;&lt;font style=&quot;font-size: 16px;&quot;&gt;Single-Page Web&lt;br&gt;Application&lt;/font&gt;&lt;/b&gt;" style="rounded=1;whiteSpace=wrap;html=1;fontSize=16;strokeColor=#82b366;fillColor=#d5e8d4;" vertex="1" parent="1">
          <mxGeometry x="60" y="240" width="160" height="81.75" as="geometry" />
        </mxCell>
        <mxCell id="Q1t_D53qkPP75rgHkSk3-3" style="edgeStyle=none;rounded=0;orthogonalLoop=1;jettySize=auto;html=1;exitX=1;exitY=1;exitDx=0;exitDy=0;fontSize=18;fillColor=#d5e8d4;strokeColor=default;" edge="1" parent="1">
          <mxGeometry relative="1" as="geometry">
            <mxPoint x="440" y="196.75" as="sourcePoint" />
            <mxPoint x="440" y="196.75" as="targetPoint" />
          </mxGeometry>
        </mxCell>
        <mxCell id="Q1t_D53qkPP75rgHkSk3-4" value="&lt;b&gt;Authentication&lt;br&gt;Controller&lt;/b&gt;" style="rounded=1;whiteSpace=wrap;html=1;fontSize=16;strokeColor=#d79b00;fillColor=#ffe6cc;" vertex="1" parent="1">
          <mxGeometry x="280" y="190" width="160" height="81.75" as="geometry" />
        </mxCell>
        <mxCell id="Q1t_D53qkPP75rgHkSk3-5" style="edgeStyle=none;rounded=0;orthogonalLoop=1;jettySize=auto;html=1;exitX=1;exitY=1;exitDx=0;exitDy=0;fontSize=18;fillColor=#d5e8d4;strokeColor=default;" edge="1" parent="1">
          <mxGeometry relative="1" as="geometry">
            <mxPoint x="440" y="386.75" as="sourcePoint" />
            <mxPoint x="440" y="386.75" as="targetPoint" />
          </mxGeometry>
        </mxCell>
        <mxCell id="Q1t_D53qkPP75rgHkSk3-18" style="edgeStyle=orthogonalEdgeStyle;rounded=0;orthogonalLoop=1;jettySize=auto;html=1;exitX=0.5;exitY=1;exitDx=0;exitDy=0;entryX=0.5;entryY=0;entryDx=0;entryDy=0;" edge="1" parent="1" source="Q1t_D53qkPP75rgHkSk3-6" target="Q1t_D53qkPP75rgHkSk3-11">
          <mxGeometry relative="1" as="geometry" />
        </mxCell>
        <mxCell id="Q1t_D53qkPP75rgHkSk3-6" value="&lt;b&gt;User Controller&lt;/b&gt;" style="rounded=1;whiteSpace=wrap;html=1;fontSize=16;strokeColor=#d79b00;fillColor=#ffe6cc;" vertex="1" parent="1">
          <mxGeometry x="280" y="290" width="160" height="81.75" as="geometry" />
        </mxCell>
        <mxCell id="Q1t_D53qkPP75rgHkSk3-7" value="" style="strokeWidth=2;html=1;shape=mxgraph.flowchart.database;whiteSpace=wrap;fontSize=16;fillColor=#e1d5e7;strokeColor=#9673a6;" vertex="1" parent="1">
          <mxGeometry x="500" y="241.75" width="150" height="80" as="geometry" />
        </mxCell>
        <mxCell id="Q1t_D53qkPP75rgHkSk3-8" value="&lt;b&gt;User Repository&lt;/b&gt;" style="text;html=1;align=center;verticalAlign=middle;resizable=0;points=[];autosize=1;strokeColor=none;fillColor=none;fontSize=16;" vertex="1" parent="1">
          <mxGeometry x="500" y="271.75" width="150" height="30" as="geometry" />
        </mxCell>
        <mxCell id="Q1t_D53qkPP75rgHkSk3-9" style="edgeStyle=none;rounded=0;orthogonalLoop=1;jettySize=auto;html=1;exitX=1;exitY=1;exitDx=0;exitDy=0;fontSize=18;fillColor=#dae8fc;strokeColor=#6c8ebf;" edge="1" parent="1">
          <mxGeometry relative="1" as="geometry">
            <mxPoint x="465" y="550.25" as="sourcePoint" />
            <mxPoint x="465" y="550.25" as="targetPoint" />
          </mxGeometry>
        </mxCell>
        <mxCell id="Q1t_D53qkPP75rgHkSk3-10" style="edgeStyle=none;rounded=0;orthogonalLoop=1;jettySize=auto;html=1;exitX=1;exitY=1;exitDx=0;exitDy=0;fontSize=18;fillColor=#dae8fc;strokeColor=#6c8ebf;" edge="1" parent="1">
          <mxGeometry relative="1" as="geometry">
            <mxPoint x="445" y="561.75" as="sourcePoint" />
            <mxPoint x="445" y="561.75" as="targetPoint" />
          </mxGeometry>
        </mxCell>
        <mxCell id="Q1t_D53qkPP75rgHkSk3-11" value="&lt;b&gt;Filter Service&lt;/b&gt;" style="rounded=1;whiteSpace=wrap;html=1;fontSize=16;strokeColor=#6c8ebf;fillColor=#dae8fc;" vertex="1" parent="1">
          <mxGeometry x="280" y="390" width="160" height="81.75" as="geometry" />
        </mxCell>
        <mxCell id="Q1t_D53qkPP75rgHkSk3-16" style="edgeStyle=orthogonalEdgeStyle;rounded=0;orthogonalLoop=1;jettySize=auto;html=1;exitX=1;exitY=0.5;exitDx=0;exitDy=0;entryX=0;entryY=0.5;entryDx=0;entryDy=0;entryPerimeter=0;" edge="1" parent="1" source="Q1t_D53qkPP75rgHkSk3-4" target="Q1t_D53qkPP75rgHkSk3-7">
          <mxGeometry relative="1" as="geometry" />
        </mxCell>
        <mxCell id="Q1t_D53qkPP75rgHkSk3-17" style="edgeStyle=orthogonalEdgeStyle;rounded=0;orthogonalLoop=1;jettySize=auto;html=1;exitX=1;exitY=0.5;exitDx=0;exitDy=0;entryX=0;entryY=0.5;entryDx=0;entryDy=0;entryPerimeter=0;" edge="1" parent="1" source="Q1t_D53qkPP75rgHkSk3-6" target="Q1t_D53qkPP75rgHkSk3-7">
          <mxGeometry relative="1" as="geometry" />
        </mxCell>
      </root>
    </mxGraphModel>
  </diagram>
</mxfile>
